<svg xmlns="http://www.w3.org/2000/svg" xmlns:xlink="http://www.w3.org/1999/xlink" width="70" height="70" viewBox="0 0 70 70">
  <defs>
    <clipPath id="clip-path">
      <circle id="Ellipse_454" data-name="Ellipse 454" cx="35" cy="35" r="35" transform="translate(823 522)" fill="#fff"/>
    </clipPath>
    <clipPath id="clip-path-2">
      <rect id="Rectangle_2340" data-name="Rectangle 2340" width="70" height="70" rx="20" fill="#fff"/>
    </clipPath>
  </defs>
  <g id="Mask_Group_7" data-name="Mask Group 7" transform="translate(-823 -522)" clip-path="url(#clip-path)">
    <g id="Group_3062" data-name="Group 3062" transform="translate(-43 22)">
      <circle id="Ellipse_471" data-name="Ellipse 471" cx="38" cy="38" r="38" transform="translate(863 497)" fill="#eba900"/>
      <g id="logo.3dbef5fc" transform="translate(866 500)">
        <g id="Group_3034" data-name="Group 3034" transform="translate(0 0)" clip-path="url(#clip-path-2)">
          <rect id="Rectangle_2339" data-name="Rectangle 2339" width="70" height="70" rx="20" fill="#eba900"/>
          <path id="Path_5864" data-name="Path 5864" d="M-1.194,23.777c3.791-2.2,6.972,1.319,6.938,2.875-.029,1.332-.78,3.395-2.632,3.94A3.949,3.949,0,0,0,5.838,32.61l1.61,2.3A10.393,10.393,0,0,1,.33,34.719C-3.476,33.1-5.676,26.381-1.194,23.777Z" transform="translate(-2.81 17.183)" fill="#f3d69a"/>
          <path id="Path_5865" data-name="Path 5865" d="M-.874,28.475a2.836,2.836,0,0,0,2.955,2.253,3.481,3.481,0,0,0,1.031-.136m0,0c1.853-.545,2.6-2.608,2.632-3.94C5.778,25.1,2.6,21.575-1.194,23.777-5.676,26.381-3.476,33.1.33,34.719a10.393,10.393,0,0,0,7.118.195l-1.61-2.3A3.949,3.949,0,0,1,3.112,30.592Z" transform="translate(-2.81 17.183)" fill="none" stroke="#333" stroke-linecap="round" stroke-linejoin="round" stroke-width="0.411"/>
          <path id="Path_5866" data-name="Path 5866" d="M.33,34.415C-3.476,32.8-5.676,26.076-1.194,23.472c-.725,1.451-2.49,4.727,0,7.641C1.051,33.739,4.1,33.962,6.967,33.6l.481,1.007A10.393,10.393,0,0,1,.33,34.415Z" transform="translate(-2.81 17.488)" fill="#fdf9f2"/>
          <path id="Path_5867" data-name="Path 5867" d="M-.874,28.475a2.836,2.836,0,0,0,2.955,2.253,3.481,3.481,0,0,0,1.031-.136m0,0c1.853-.545,2.6-2.608,2.632-3.94C5.778,25.1,2.6,21.575-1.194,23.777-5.676,26.381-3.476,33.1.33,34.719a10.393,10.393,0,0,0,7.118.195l-1.61-2.3A3.949,3.949,0,0,1,3.112,30.592Z" transform="translate(-2.81 17.183)" fill="none" stroke="#333" stroke-linecap="round" stroke-linejoin="round" stroke-width="0.427"/>
          <path id="Path_5868" data-name="Path 5868" d="M24.035,55.488c2.081.769,4.614-1.99,5.111-10.222,0-4.436-1.055-7.019-2.171-8.82,2.714.227,8.322-1.221,10.116-6.558,1.172-2.847.44-6.506,0-8.955,3.951-4.252,3.043-18.5,0-18.5A14.363,14.363,0,0,0,25.8,7.679a21.4,21.4,0,0,0-8.413-1.628A20.987,20.987,0,0,0,8.295,8C4.78,5.328-.17,1-1.973,2.433c-3,2.388-4.3,15.133,0,18.5l0,.009c-.687,2.6-2.1,7.956,1.043,11.706a11.456,11.456,0,0,0,10.946,3.8c-2.533,1.809-3.483,5.247-3.483,9.408,0,10.222,4.848,10.019,6.2,9.634,1.266-.362,1.263-2.463,1.357-4.342a13.721,13.721,0,0,0,8.322-.09C22.382,52.715,22.675,54.985,24.035,55.488Z" transform="translate(-3.603 1.252)" fill="#fdf9f2"/>
          <path id="Path_5869" data-name="Path 5869" d="M13,50.81c.38.12.729.238,1.086.335m9.272-.4c-.33.112-.638.212-.95.3m0,0c-.024,1.66.268,3.93,1.628,4.432,2.081.769,4.614-1.99,5.111-10.222,0-4.436-1.055-7.019-2.171-8.82,2.714.227,8.322-1.221,10.116-6.558,1.172-2.847.44-6.506,0-8.955,3.951-4.252,3.043-18.5,0-18.5A14.363,14.363,0,0,0,25.8,7.679a21.4,21.4,0,0,0-8.413-1.628A20.987,20.987,0,0,0,8.295,8C4.78,5.328-.17,1-1.973,2.433c-3,2.388-4.3,15.133,0,18.5-.686,2.594-2.111,7.96,1.041,11.715a11.456,11.456,0,0,0,10.946,3.8c-2.533,1.809-3.483,5.247-3.483,9.408,0,10.222,4.848,10.019,6.2,9.634,1.266-.362,1.263-2.463,1.357-4.342m8.322-.09a13.721,13.721,0,0,1-8.322.09" transform="translate(-3.603 1.252)" fill="none" stroke="#333" stroke-linecap="round" stroke-linejoin="round" stroke-width="0.411"/>
          <path id="Path_5870" data-name="Path 5870" d="M8.295,8C4.78,5.328-.17,1-1.973,2.433c-3,2.388-4.3,15.133,0,18.5l0,.009c-.687,2.6-2.1,7.956,1.043,11.706a11.456,11.456,0,0,0,10.946,3.8,20.974,20.974,0,0,0-2.24-.767c-3.592-1.1-8.8-2.694-6.761-7.374.882-2.028,2.774-2.475,4.95-2.988,3.406-.8,7.509-1.773,9.523-9.224,1.311-4.847.181-7.87-1.927-9.73A20.188,20.188,0,0,0,8.295,8Z" transform="translate(-3.603 1.252)" fill="#f3d69a"/>
          <path id="Path_5871" data-name="Path 5871" d="M26.692,2.31A14.363,14.363,0,0,0,15.4,7.557,20.482,20.482,0,0,0,10.831,6.24C9.7,7.878,8.384,10.322,9.158,15.97c1.033,7.54,5.343,8.494,9.043,9.312,2.292.507,4.35.962,5.25,2.9,2.22,4.782-2.042,6.318-5.029,7.4a15.262,15.262,0,0,0-1.846.746c2.714.227,8.322-1.221,10.116-6.558,1.125-2.733.5-6.215.054-8.656l-.054-.3C30.642,16.558,29.735,2.31,26.692,2.31Z" transform="translate(6.796 1.375)" fill="#f3d69a"/>
          <path id="Path_5872" data-name="Path 5872" d="M19.166,40.662c2.081.769,4.614-1.99,5.111-10.222,0-4.436-1.055-7.019-2.171-8.82-.039.425-.07.892-.1,1.39h0c-.3,4.546-.773,11.636-8.762,11.636-8.1,0-8.443-8.579-8.1-13.026-2.533,1.809-3.483,5.247-3.483,9.408,0,10.222,4.848,10.019,6.2,9.634,1.172-.335,1.256-2.16,1.337-3.92q.01-.212.02-.422a13.721,13.721,0,0,0,8.322-.09C17.514,37.889,17.806,40.159,19.166,40.662Z" transform="translate(1.266 16.078)" fill="#f3d69a"/>
          <circle id="Ellipse_440" data-name="Ellipse 440" cx="1.809" cy="1.809" r="1.809" transform="translate(4.963 19.018)" fill="#3e3e3e"/>
          <circle id="Ellipse_441" data-name="Ellipse 441" cx="0.611" cy="0.611" r="0.611" transform="translate(6.929 19.564)" fill="#fff"/>
          <circle id="Ellipse_442" data-name="Ellipse 442" cx="1.809" cy="1.809" r="1.809" transform="translate(18.713 19.018)" fill="#3e3e3e"/>
          <path id="Path_5873" data-name="Path 5873" d="M4.851,13.656c0,.749-1.053,1.357-2.352,1.357S.147,14.405.147,13.656,1.2,12.3,2.5,12.3,4.851,12.906,4.851,13.656Z" transform="translate(0.112 8.98)" fill="#ffc5c5"/>
          <path id="Path_5874" data-name="Path 5874" d="M17.382,13.656c0,.749-1.053,1.357-2.352,1.357s-2.352-.608-2.352-1.357S13.731,12.3,15.03,12.3,17.382,12.906,17.382,13.656Z" transform="translate(9.653 8.98)" fill="#ffc5c5"/>
          <path id="Path_5875" data-name="Path 5875" d="M5.8,22.933a9.2,9.2,0,0,0,.633,2.443c.407,1,1.493,2.261.859,3.709-.533,1.219-2.895.543-4.342-2.623m18.047-2.94c.106,2.05-1.131,6.423-3.257,5.473-1.809-.808-.5-3.392-.271-4.614a12.251,12.251,0,0,0,.226-1.99" transform="translate(2.243 16.664)" fill="none" stroke="#333" stroke-linecap="round" stroke-linejoin="round" stroke-width="0.427"/>
          <path id="Path_5876" data-name="Path 5876" d="M13,50.81c.38.12.729.238,1.086.335m9.272-.4c-.33.112-.638.212-.95.3m0,0c-.024,1.66.268,3.93,1.628,4.432,2.081.769,4.614-1.99,5.111-10.222,0-4.436-1.055-7.019-2.171-8.82,2.714.227,8.322-1.221,10.116-6.558,1.172-2.847.44-6.506,0-8.955,3.951-4.252,3.043-18.5,0-18.5A14.363,14.363,0,0,0,25.8,7.679a21.4,21.4,0,0,0-8.413-1.628A20.987,20.987,0,0,0,8.295,8C4.78,5.328-.17,1-1.973,2.433c-3,2.388-4.3,15.133,0,18.5-.686,2.594-2.111,7.96,1.041,11.715a11.456,11.456,0,0,0,10.946,3.8c-2.533,1.809-3.483,5.247-3.483,9.408,0,10.222,4.848,10.019,6.2,9.634,1.266-.362,1.263-2.463,1.357-4.342m8.322-.09a13.721,13.721,0,0,1-8.322.09" transform="translate(-3.603 1.252)" fill="none" stroke="#333" stroke-linecap="round" stroke-linejoin="round" stroke-width="0.427"/>
          <circle id="Ellipse_443" data-name="Ellipse 443" cx="0.611" cy="0.611" r="0.611" transform="translate(20.649 19.564)" fill="#fff"/>
          <ellipse id="Ellipse_444" data-name="Ellipse 444" cx="1.99" cy="0.995" rx="1.99" ry="0.995" transform="translate(11.657 22.139)" fill="#3e3e3e"/>
          <path id="Path_5877" data-name="Path 5877" d="M7.778,13.692a1.771,1.771,0,0,1,.036.4C7.8,13.953,7.785,13.816,7.778,13.692Z" transform="translate(5.922 10.041)" fill="#e09384"/>
          <path id="Path_5878" data-name="Path 5878" d="M5.812,15.1c0,.349.451,1.184,1.933.926a1.945,1.945,0,0,0,1.53-2.336,2.27,2.27,0,0,0,1.248,2.215,1.766,1.766,0,0,0,2.336-.805" transform="translate(4.425 10.041)" fill="none" stroke="#3e3e3e" stroke-linecap="round" stroke-linejoin="round" stroke-width="0.32"/>
          <path id="Path_5879" data-name="Path 5879" d="M6.132,8.692C5.951,7.742.252,2.9-1.873,3.853c-3.392,1.516-.724,13.84,0,13.931s1.43-3.347,2.94-5.2C3.645,9.416,6.313,9.642,6.132,8.692Z" transform="translate(-2.707 2.456)" fill="#fff"/>
          <path id="Path_5880" data-name="Path 5880" d="M13.2,8.7c.181-.948,5.87-5.775,7.992-4.828,3.386,1.512.722,13.807,0,13.9s-1.427-3.339-2.935-5.189C15.684,9.42,13.02,9.646,13.2,8.7Z" transform="translate(10.044 2.47)" fill="#fff"/>
          <path id="Path_5881" data-name="Path 5881" d="M65.7,26.491C60.168,7.42,56.206,2.035,42.529,2.035s-18.117,9.511-22.6,25.971,2.478,15.861,3.345,15.833c2.317-.077,3.737-1.684,4.935-3.551a8.794,8.794,0,0,0-.128,1.8c.093,2.805,1.923,3.594,3.476,2.764.8,2.228,2.751,3.832,2.777,4.592.031.939-1.721,1.12-1.242,2s5.344.886,6.184.327a2.782,2.782,0,0,0,.827-1.805,13.434,13.434,0,0,0,7.673-.286c.084.688.292,1.821.728,2.091.751.466,5.571.748,5.944-.327s-1.266-1.891-1.29-2.626c-.022-.668,2.608-3.82,3.049-5.585a2.992,2.992,0,0,0,3.278-.884,7.727,7.727,0,0,0,3.852,1.513C64.806,43.813,70.289,42.283,65.7,26.491Z" transform="translate(14.037 1.165)" fill="#e3e0dd"/>
          <path id="Path_5882" data-name="Path 5882" d="M27.148,13.949c-4.5,12.294-3.139,16.128,3.751,19.457.858.415-2.027,3.057-2.691,6.881m5.513.548a4.687,4.687,0,0,1-2.165,4.013m7.652,4.921c.309.071.606.136.893.2m8.335-.5q-.34.115-.662.215M59.041,12.894c4.339,11.724,3.49,15.775-2.375,19.66-.92.609,3.414,5.569,3.305,8.475a2.259,2.259,0,0,1-.488,1.319m-6.667-3.822c.635,2.857,2.012,4.261,3.389,4.705m-28-2.945a8.794,8.794,0,0,0-.128,1.8c.093,2.805,1.923,3.594,3.476,2.764m-3.348-4.561c-1.2,1.867-2.618,3.474-4.935,3.551-.866.029-7.828.627-3.345-15.833s8.924-25.971,22.6-25.971S60.168,7.42,65.7,26.491c4.584,15.791-.9,17.322-2.369,17.37a7.727,7.727,0,0,1-3.852-1.513m-27.928,2.5c.8,2.228,2.751,3.832,2.777,4.592.031.939-1.721,1.12-1.242,2s5.344.886,6.184.327a2.782,2.782,0,0,0,.827-1.805m0,0a13.434,13.434,0,0,0,7.673-.286m0,0c.084.688.292,1.821.728,2.091.751.466,5.571.748,5.944-.327s-1.266-1.891-1.29-2.626c-.022-.668,2.608-3.82,3.049-5.585m0,0a2.992,2.992,0,0,0,3.278-.884" transform="translate(14.037 1.165)" fill="none" stroke="#333" stroke-linecap="round" stroke-linejoin="round" stroke-width="0.417"/>
          <path id="Path_5883" data-name="Path 5883" d="M21.111,34.075c-4.159-2.4.892-16.443,3.938-23.163-2.607,8.515-1.416,12.08,3.4,14.882C27.734,29.556,25.271,36.478,21.111,34.075Z" transform="translate(14.875 7.925)" fill="#ffc5c5"/>
          <path id="Path_5884" data-name="Path 5884" d="M44.171,10.913c2.371,8.156,1.009,11.579-3.976,14.882-.628.416,1.191,2.857,2.375,5.289.792,1.414,3.055,3.882,5.768,2.444C52.208,30.668,47.173,17.26,44.171,10.913Z" transform="translate(30.508 7.925)" fill="#ffc5c5"/>
          <path id="Path_5885" data-name="Path 5885" d="M28.149,26.612c-3.368-1.628-5.414-3.376-6.1-6.174a59.916,59.916,0,0,0,8.923-3.146c3.8-1.8,5.631-6.251,9.843-6.333s7.067,5.189,9.254,6.333a76.974,76.974,0,0,0,8.5,3.146c-.715,2.137-2.27,3.743-4.653,5.321-2.818,8.467-6.443,15.312-13.1,15.393-5.328.065-8.782-4.714-9.843-7.112A61.881,61.881,0,0,1,28.149,26.612Z" transform="translate(16.787 7.96)" fill="#fff"/>
          <path id="Path_5886" data-name="Path 5886" d="M31.94,15.716a3.922,3.922,0,1,1-3.922-3.922A3.922,3.922,0,0,1,31.94,15.716Z" transform="translate(18.347 8.596)" fill="#ffc5c5"/>
          <path id="Path_5887" data-name="Path 5887" d="M44.883,15.716a3.922,3.922,0,1,1-3.922-3.922A3.922,3.922,0,0,1,44.883,15.716Z" transform="translate(28.202 8.596)" fill="#ffc5c5"/>
          <circle id="Ellipse_445" data-name="Ellipse 445" cx="1.961" cy="1.961" r="1.961" transform="translate(48.325 19.164)" fill="#3e3e3e"/>
          <circle id="Ellipse_446" data-name="Ellipse 446" cx="0.597" cy="0.597" r="0.597" transform="translate(50.326 19.652)" fill="#fff"/>
          <circle id="Ellipse_447" data-name="Ellipse 447" cx="1.961" cy="1.961" r="1.961" transform="translate(63.279 19.164)" fill="#3e3e3e"/>
          <ellipse id="Ellipse_448" data-name="Ellipse 448" cx="1.144" cy="0.572" rx="1.144" ry="0.572" transform="translate(56.17 20.308)" fill="#3e3e3e"/>
          <path id="Path_5888" data-name="Path 5888" d="M32.562,12.4a1.8,1.8,0,0,1,.036.41C32.579,12.662,32.569,12.524,32.562,12.4Z" transform="translate(24.793 9.055)" fill="#e09384"/>
          <path id="Path_5889" data-name="Path 5889" d="M30.567,13.827c0,.354.457,1.2,1.961.94A1.973,1.973,0,0,0,34.08,12.4a2.3,2.3,0,0,0,1.267,2.247,1.792,1.792,0,0,0,2.37-.817" transform="translate(23.274 9.055)" fill="none" stroke="#3e3e3e" stroke-linecap="round" stroke-linejoin="round" stroke-width="0.313"/>
          <path id="Path_5890" data-name="Path 5890" d="M27.148,13.949c-4.5,12.294-3.139,16.128,3.751,19.457.858.415-2.027,3.057-2.691,6.881m5.513.548a4.687,4.687,0,0,1-2.165,4.013m7.652,4.921c.309.071.606.136.893.2m8.335-.5q-.34.115-.662.215M59.041,12.894c4.339,11.724,3.49,15.775-2.375,19.66-.92.609,3.414,5.569,3.305,8.475a2.259,2.259,0,0,1-.488,1.319m-6.667-3.822c.635,2.857,2.012,4.261,3.389,4.705m-28-2.945a8.794,8.794,0,0,0-.128,1.8c.093,2.805,1.923,3.594,3.476,2.764m-3.348-4.561c-1.2,1.867-2.618,3.474-4.935,3.551-.866.029-7.828.627-3.345-15.833s8.924-25.971,22.6-25.971S60.168,7.42,65.7,26.491c4.584,15.791-.9,17.322-2.369,17.37a7.727,7.727,0,0,1-3.852-1.513m-27.928,2.5c.8,2.228,2.751,3.832,2.777,4.592.031.939-1.721,1.12-1.242,2s5.344.886,6.184.327a2.782,2.782,0,0,0,.827-1.805m0,0a13.434,13.434,0,0,0,7.673-.286m0,0c.084.688.292,1.821.728,2.091.751.466,5.571.748,5.944-.327s-1.266-1.891-1.29-2.626c-.022-.668,2.608-3.82,3.049-5.585m0,0a2.992,2.992,0,0,0,3.278-.884" transform="translate(14.037 1.165)" fill="none" stroke="#333" stroke-linecap="round" stroke-linejoin="round" stroke-width="0.417"/>
          <circle id="Ellipse_449" data-name="Ellipse 449" cx="0.597" cy="0.597" r="0.597" transform="translate(65.287 19.652)" fill="#fff"/>
          <path id="Path_5891" data-name="Path 5891" d="M45.736,25.5c-.648.76-5.209-4.378-15.516-4.378S15.363,26.3,14.776,25.543c-1.13-1.461-6.787-2.394-8.945-.719-.875,3.871,2.161,9.959,2.161,10.4-1.422,3.3-3.313,11.349.5,17.152,3.468,4.15,7.909,3.486,9.5,3.486.8,0,3.023-.24,5.025-.478l-.5.146c-3.214.831-4.526,8.534-4.526,13.632,0,12.524,4.869,13,6.521,12.524,1.552-.443,1.547-3.017,1.662-5.32a16.811,16.811,0,0,0,10.2-.111c-.03,2.034.329,4.815,1.995,5.431,2.549.942,5.652-2.438,6.262-12.524.488-8.068-2.992-11.97-3.879-13.189l-.222-.223c.636.1,1.268.183,1.829.223,2.327.166,6.483.554,10.307-3.6,3.813-4.389,1.958-13.281.554-17.178,0-.443,3.348-6.541,2.383-10.418C53.221,23.1,46.983,24.033,45.736,25.5Z" transform="translate(4.319 15.695)" fill="#fff"/>
          <path id="Path_5892" data-name="Path 5892" d="M25.344,55.1c-.649.082-1.468.184-2.327.286m15.239-.06c.677.143,1.478.3,2.272.426m-15.682,20.2c.465.147.894.292,1.33.411m11.36-.484c-.4.137-.782.26-1.164.374m0,0c-.03,2.034.329,4.815,1.995,5.431,2.549.942,5.652-2.438,6.262-12.524.488-8.068-2.992-11.97-3.879-13.189l-.222-.223m-4.156,20.5a16.811,16.811,0,0,1-10.2.111m0,0c-.116,2.3-.111,4.877-1.662,5.32-1.652.472-6.521,0-6.521-12.524,0-5.1,1.312-12.8,4.526-13.632l.5-.146m17.511.366c.636.1,1.268.183,1.829.223,2.327.166,6.483.554,10.307-3.6,3.813-4.389,1.958-13.281.554-17.178,0-.443,3.348-6.541,2.383-10.418-2.38-1.677-8.617-.742-9.864.72-.648.76-5.209-4.378-15.516-4.378S15.363,26.3,14.776,25.543c-1.13-1.461-6.787-2.394-8.945-.719-.875,3.871,2.161,9.959,2.161,10.4-1.422,3.3-3.313,11.349.5,17.152,3.468,4.15,7.909,3.486,9.5,3.486.8,0,3.023-.24,5.025-.478" transform="translate(4.319 15.695)" fill="none" stroke="#442716" stroke-linecap="round" stroke-linejoin="round" stroke-width="0.378"/>
          <path id="Path_5893" data-name="Path 5893" d="M39.3,54.35c.488-8.068-2.992-11.97-3.879-13.189l-.222-.223c1.178,6.1,1.764,18.643-8.644,18.732s-11.859-12.3-8.867-19.1l-.5.146c-3.214.831-4.526,8.534-4.526,13.632,0,12.524,4.869,13,6.521,12.524,1.552-.443,1.547-3.017,1.662-5.32a16.811,16.811,0,0,0,10.2-.111c-.03,2.034.329,4.815,1.995,5.431C35.59,67.815,38.693,64.435,39.3,54.35Z" transform="translate(9.644 30.508)" fill="#dbdbdb"/>
          <path id="Path_5894" data-name="Path 5894" d="M40.655,23.963c-2.38-1.677-8.617-.742-9.864.72-.378.444-2.087-1.12-5.491-2.5.607,8.789,3.659,12.179,13.907,15.43a28.927,28.927,0,0,0-.935-3.233C38.272,33.938,41.62,27.84,40.655,23.963Z" transform="translate(19.264 16.507)" fill="#dbdbdb"/>
          <path id="Path_5895" data-name="Path 5895" d="M5.83,24.011c2.158-1.675,7.815-.741,8.945.719.187.241.773-.117,1.818-.719a29.056,29.056,0,0,1,3.653-1.827C19.7,32.419,16.673,35.7,6.946,37.615a20.784,20.784,0,0,1,1.045-3.2C7.991,33.971,4.955,27.882,5.83,24.011Z" transform="translate(4.319 16.507)" fill="#dbdbdb"/>
          <path id="Path_5896" data-name="Path 5896" d="M20.568,21.181q.934-.061,1.94-.063.337,0,.665.007.365.008.72.024.683.031,1.33.092a26.809,26.809,0,0,1,3.048.457c-.332,1.82-.765,4.015-2.05,4.015s-1.385-2.5-1-4.472q-.647-.06-1.33-.092c.222,1.726-.1,5.133-1.607,5.178S19.958,23,20.124,21.213q-.714.058-1.385.148c.388,1.84.665,4.175-.61,4.352s-2.29-1.953-2.327-3.79a25.794,25.794,0,0,1,2.937-.562q.671-.089,1.385-.148Q20.344,21.2,20.568,21.181Z" transform="translate(12.032 15.695)" fill="#dbdbdb"/>
          <path id="Path_5897" data-name="Path 5897" d="M7.031,24.3c.532-.665,4.47-.277,6.373,0,.277.665-1.884,1.829-2.383,2.66s-.554,3.768-1.829,3.713S6.366,25.128,7.031,24.3Z" transform="translate(5.232 17.836)" fill="#fff"/>
          <path id="Path_5898" data-name="Path 5898" d="M35.647,24.286c-.531-.667-4.458-.278-6.356,0-.276.667,1.879,1.834,2.377,2.668s.553,3.779,1.824,3.724S36.31,25.12,35.647,24.286Z" transform="translate(22.284 17.827)" fill="#fff"/>
          <circle id="Ellipse_450" data-name="Ellipse 450" cx="2.217" cy="2.217" r="2.217" transform="translate(23.733 51.166)" fill="#3e3e3e"/>
          <circle id="Ellipse_451" data-name="Ellipse 451" cx="0.72" cy="0.72" r="0.72" transform="translate(26.228 51.775)" fill="#fff"/>
          <circle id="Ellipse_452" data-name="Ellipse 452" cx="2.217" cy="2.217" r="2.217" transform="translate(40.579 51.166)" fill="#3e3e3e"/>
          <path id="Path_5899" data-name="Path 5899" d="M18.669,32.272c.709-.089,1.071-1.034,1.164-1.5a3.7,3.7,0,0,0,1,1.5c.111,2.069.067,6.207-1,6.207S18.614,34.341,18.669,32.272Z" transform="translate(14.208 23.049)" fill="#e09384"/>
          <path id="Path_5900" data-name="Path 5900" d="M19.288,32.272c.709-.089,1.071-1.034,1.164-1.5a3.7,3.7,0,0,0,1,1.5m-2.161,0a5.119,5.119,0,0,1-1.441,0m1.441,0c-.055,2.069.1,6.207,1.164,6.207s1.108-4.138,1-6.207m0,0a4.045,4.045,0,0,0,1.94,0" transform="translate(13.589 23.049)" fill="none" stroke="#3e3e3e" stroke-linecap="round" stroke-linejoin="round" stroke-width="0.378"/>
          <path id="Path_5901" data-name="Path 5901" d="M15.965,32.5c0,.918-1.29,1.662-2.882,1.662S10.2,33.42,10.2,32.5s1.29-1.662,2.882-1.662S15.965,31.583,15.965,32.5Z" transform="translate(7.768 23.097)" fill="#ffc5c5"/>
          <path id="Path_5902" data-name="Path 5902" d="M31.318,32.5c0,.918-1.29,1.662-2.882,1.662s-2.882-.744-2.882-1.662,1.29-1.662,2.882-1.662S31.318,31.583,31.318,32.5Z" transform="translate(19.458 23.097)" fill="#ffc5c5"/>
          <path id="Path_5903" data-name="Path 5903" d="M25.344,55.1c-.649.082-1.468.184-2.327.286m15.239-.06c.677.143,1.478.3,2.272.426m-15.682,20.2c.465.147.894.292,1.33.411m11.36-.484c-.4.137-.782.26-1.164.374m0,0c-.03,2.034.329,4.815,1.995,5.431,2.549.942,5.652-2.438,6.262-12.524.488-8.068-2.992-11.97-3.879-13.189l-.222-.223m-4.156,20.5a16.811,16.811,0,0,1-10.2.111m0,0c-.116,2.3-.111,4.877-1.662,5.32-1.652.472-6.521,0-6.521-12.524,0-5.1,1.312-12.8,4.526-13.632l.5-.146m17.511.366c.636.1,1.268.183,1.829.223,2.327.166,6.483.554,10.307-3.6,3.813-4.389,1.958-13.281.554-17.178,0-.443,3.348-6.541,2.383-10.418-2.38-1.677-8.617-.742-9.864.72-.648.76-5.209-4.378-15.516-4.378S15.363,26.3,14.776,25.543c-1.13-1.461-6.787-2.394-8.945-.719-.875,3.871,2.161,9.959,2.161,10.4-1.422,3.3-3.313,11.349.5,17.152,3.468,4.15,7.909,3.486,9.5,3.486.8,0,3.023-.24,5.025-.478" transform="translate(4.319 15.695)" fill="none" stroke="#333" stroke-linecap="round" stroke-linejoin="round" stroke-width="0.503"/>
          <circle id="Ellipse_453" data-name="Ellipse 453" cx="0.72" cy="0.72" r="0.72" transform="translate(43.074 51.775)" fill="#fff"/>
        </g>
      </g>
    </g>
  </g>
</svg>
