<svg xmlns="http://www.w3.org/2000/svg" width="35.061" height="43" viewBox="0 0 35.061 43">
  <g id="Group_3018" data-name="Group 3018" transform="translate(-287.822 -573.319)">
    <path id="Path_5857" data-name="Path 5857" d="M288.405,594.292a17.617,17.617,0,0,0,5.26,4.607s-2.578-21.793,14.224-25.581c-4.3,15.8,5.476,20.257,9.039,11.908,5.956,7.951,1.435,14.885,1.435,14.885,2.442.352,4.492-2.315,4.492-2.315.017.329.029.658.029.993a17.531,17.531,0,1,1-34.478-4.5Z" transform="translate(0 0)" fill="#ff6536"/>
    <path id="Path_5858" data-name="Path 5858" d="M311.4,597.8s-2.05,2.668-4.492,2.315c0,0,4.521-6.934-1.432-14.885-3.565,8.349-13.346,3.892-9.042-11.908a19.243,19.243,0,0,0-2.537.759v42.241a17.53,17.53,0,0,0,17.532-17.529C311.426,598.455,311.415,598.126,311.4,597.8Z" transform="translate(11.457 0)" fill="#ff421d"/>
    <path id="Path_5859" data-name="Path 5859" d="M291.231,593.58a7.689,7.689,0,1,0,12.823-5.722c-2.973,4.039-7.208-2.087-3.909-6.562C300.146,581.3,291.231,582.413,291.231,593.58Z" transform="translate(6.432 15.052)" fill="#fbbf00"/>
    <path id="Path_5860" data-name="Path 5860" d="M301.585,593.58a7.667,7.667,0,0,0-2.555-5.722c-2.973,4.039-7.208-2.087-3.909-6.562a7.787,7.787,0,0,0-1.227.294v19.677A7.689,7.689,0,0,0,301.585,593.58Z" transform="translate(11.457 15.052)" fill="#ffa900"/>
  </g>
</svg>
