<svg xmlns="http://www.w3.org/2000/svg" xmlns:xlink="http://www.w3.org/1999/xlink" width="295" height="295" viewBox="0 0 295 295">
  <defs>
    <clipPath id="clip-path">
      <circle id="Ellipse_496" data-name="Ellipse 496" cx="147.5" cy="147.5" r="147.5" transform="translate(-0.307 -0.063)" fill="#fff"/>
    </clipPath>
    <clipPath id="clip-path-2">
      <rect id="Rectangle_2382" data-name="Rectangle 2382" width="295" height="295" rx="20" transform="translate(-0.307 -0.063)" fill="#fff"/>
    </clipPath>
  </defs>
  <g id="Mask_Group_8" data-name="Mask Group 8" transform="translate(0.307 0.063)" clip-path="url(#clip-path)">
    <g id="Group_8761" data-name="Group 8761" transform="translate(-12.622 -12.622)">
      <ellipse id="Ellipse_481" data-name="Ellipse 481" cx="159.5" cy="160" rx="159.5" ry="160" transform="translate(0.315 -0.441)" fill="#eba900"/>
      <g id="logo.3dbef5fc" transform="translate(12.622 12.622)">
        <g id="Group_8760" data-name="Group 8760" transform="translate(0 0)" clip-path="url(#clip-path-2)">
          <rect id="Rectangle_2381" data-name="Rectangle 2381" width="295" height="295" rx="20" transform="translate(-0.307 -0.063)" fill="#eba900"/>
          <path id="Path_14711" data-name="Path 14711" d="M6.813,26.038C22.765,16.772,36.148,31.587,36,38.135c-.122,5.605-3.281,14.283-11.076,16.577C28.912,61.02,33.955,63.037,36.4,63.2l6.775,9.7c-4.457,1.489-17.049,4.661-29.949-.82C-2.79,65.273-12.044,36.993,6.813,26.038Z" transform="translate(-23.659 146.301)" fill="#f3d69a"/>
          <path id="Path_14712" data-name="Path 14712" d="M8.159,45.8c.484,3.113,3.648,9.367,12.434,9.48a14.647,14.647,0,0,0,4.336-.571m0,0C32.724,52.418,35.882,43.74,36,38.135c.143-6.548-13.24-21.363-29.191-12.1-18.858,10.954-9.6,39.234,6.412,46.039,12.9,5.481,25.492,2.309,29.949.82L36.4,63.2C33.955,63.037,28.912,61.02,24.929,54.712Z" transform="translate(-23.659 146.301)" fill="none" stroke="#333" stroke-linecap="round" stroke-linejoin="round" stroke-width="0.411"/>
          <path id="Path_14713" data-name="Path 14713" d="M13.225,69.512c-16.015-6.8-25.27-35.085-6.412-46.039-3.052,6.1-10.476,19.891,0,32.147C16.257,66.669,29.091,67.608,41.15,66.1l2.025,4.235C38.717,71.822,26.126,74.993,13.225,69.512Z" transform="translate(-23.659 148.866)" fill="#fdf9f2"/>
          <path id="Path_14714" data-name="Path 14714" d="M8.159,45.8c.484,3.113,3.648,9.367,12.434,9.48a14.647,14.647,0,0,0,4.336-.571m0,0C32.724,52.418,35.882,43.74,36,38.135c.143-6.548-13.24-21.363-29.191-12.1-18.858,10.954-9.6,39.234,6.412,46.039,12.9,5.481,25.492,2.309,29.949.82L36.4,63.2C33.955,63.037,28.912,61.02,24.929,54.712Z" transform="translate(-23.659 146.301)" fill="none" stroke="#333" stroke-linecap="round" stroke-linejoin="round" stroke-width="0.427"/>
          <path id="Path_14715" data-name="Path 14715" d="M116.3,226.569c8.754,3.236,19.411-8.373,21.5-43.008,0-18.663-4.441-29.533-9.135-37.109,11.418.953,35.016-5.139,42.563-27.595,4.932-11.979,1.852-27.374,0-37.68,16.622-17.889,12.8-77.834,0-77.834-15.349,0-34.57,5.709-47.51,22.074a90.021,90.021,0,0,0-35.4-6.85,88.3,88.3,0,0,0-38.251,8.2C35.287,15.523,14.46-2.689,6.874,3.343c-12.636,10.048-18.076,63.671,0,77.834l-.01.038c-2.89,10.927-8.855,33.474,4.39,49.25,13.42,15.986,33.493,18.777,46.053,15.986-10.657,7.612-14.653,22.075-14.653,39.583,0,43.009,20.4,42.155,26.072,40.534,5.329-1.522,5.312-10.362,5.709-18.269,12.588,3.439,22.163,3.434,35.016-.38C109.348,214.9,110.579,224.454,116.3,226.569Z" transform="translate(-30.335 12.161)" fill="#fdf9f2"/>
          <path id="Path_14716" data-name="Path 14716" d="M69.868,206.889c1.6.5,3.069,1,4.567,1.41m39.012-1.663c-1.39.47-2.685.893-4,1.283m0,0c-.1,6.984,1.129,16.535,6.851,18.649,8.754,3.236,19.411-8.373,21.5-43.008,0-18.663-4.441-29.533-9.135-37.109,11.418.953,35.016-5.139,42.563-27.595,4.932-11.979,1.852-27.374,0-37.68,16.622-17.889,12.8-77.834,0-77.834-15.349,0-34.57,5.709-47.51,22.074a90.021,90.021,0,0,0-35.4-6.85,88.3,88.3,0,0,0-38.251,8.2C35.287,15.523,14.46-2.689,6.874,3.343c-12.636,10.048-18.076,63.671,0,77.834-2.887,10.912-8.88,33.493,4.38,49.288,13.42,15.986,33.493,18.777,46.053,15.986-10.657,7.612-14.653,22.075-14.653,39.583,0,43.009,20.4,42.155,26.072,40.534,5.329-1.522,5.312-10.362,5.709-18.269m35.016-.38c-12.853,3.814-22.427,3.82-35.016.38" transform="translate(-30.335 12.161)" fill="none" stroke="#333" stroke-linecap="round" stroke-linejoin="round" stroke-width="0.411"/>
          <path id="Path_14717" data-name="Path 14717" d="M50.076,26.77C35.287,15.523,14.46-2.689,6.874,3.343c-12.636,10.048-18.076,63.671,0,77.834l-.01.038c-2.89,10.927-8.855,33.474,4.39,49.25,13.42,15.986,33.493,18.777,46.053,15.986a88.246,88.246,0,0,0-9.426-3.228c-15.111-4.63-37.006-11.337-28.445-31.027,3.71-8.532,11.671-10.412,20.828-12.574C54.6,96.24,71.858,92.165,80.334,60.815c5.514-20.395.761-33.113-8.11-40.937A84.938,84.938,0,0,0,50.076,26.77Z" transform="translate(-30.335 12.161)" fill="#f3d69a"/>
          <path id="Path_14718" data-name="Path 14718" d="M83.674,2.31c-15.349,0-34.57,5.709-47.51,22.074a86.177,86.177,0,0,0-19.221-5.539C12.186,25.737,6.646,36.019,9.9,59.782c4.348,31.726,22.48,35.736,38.047,39.18,9.644,2.134,18.3,4.049,22.089,12.2,9.342,20.12-8.593,26.584-21.161,31.115a64.215,64.215,0,0,0-7.765,3.14c11.418.953,35.016-5.139,42.563-27.594,4.735-11.5,2.085-26.149.228-36.42q-.117-.641-.228-1.259C100.3,62.256,96.479,2.31,83.674,2.31Z" transform="translate(57.224 13.194)" fill="#f3d69a"/>
          <path id="Path_14719" data-name="Path 14719" d="M75.309,101.737c8.754,3.236,19.411-8.373,21.5-43.008,0-18.663-4.441-29.532-9.135-37.109-.163,1.786-.293,3.754-.433,5.85h0C85.976,46.6,83.994,76.428,50.38,76.428c-34.064,0-35.523-36.094-34.064-54.807C5.659,29.232,1.662,43.695,1.662,61.2c0,43.009,20.4,42.155,26.072,40.534,4.932-1.409,5.285-9.088,5.625-16.493q.041-.893.084-1.776c12.588,3.439,22.163,3.434,35.016-.38C68.356,90.072,69.587,99.623,75.309,101.737Z" transform="translate(10.657 136.992)" fill="#f3d69a"/>
          <circle id="Ellipse_482" data-name="Ellipse 482" cx="7.612" cy="7.612" r="7.612" transform="translate(20.882 80.018)" fill="#3e3e3e"/>
          <circle id="Ellipse_483" data-name="Ellipse 483" cx="2.57" cy="2.57" r="2.57" transform="translate(29.154 82.314)" fill="#fff"/>
          <circle id="Ellipse_484" data-name="Ellipse 484" cx="7.612" cy="7.612" r="7.612" transform="translate(78.734 80.018)" fill="#3e3e3e"/>
          <path id="Path_14720" data-name="Path 14720" d="M19.939,18.008c0,3.153-4.431,5.709-9.9,5.709s-9.9-2.556-9.9-5.709,4.43-5.709,9.9-5.709S19.939,14.854,19.939,18.008Z" transform="translate(0.944 77.233)" fill="#ffc5c5"/>
          <path id="Path_14721" data-name="Path 14721" d="M32.47,18.008c0,3.153-4.431,5.709-9.9,5.709s-9.9-2.556-9.9-5.709,4.431-5.709,9.9-5.709S32.47,14.854,32.47,18.008Z" transform="translate(81.281 77.233)" fill="#ffc5c5"/>
          <path id="Path_14722" data-name="Path 14722" d="M14.935,24.674A38.714,38.714,0,0,0,17.6,34.951c1.713,4.187,6.28,9.515,3.616,15.6C18.972,55.683,9.036,52.839,2.946,39.518M78.878,27.148c.444,8.627-4.758,27.023-13.7,23.026-7.612-3.4-2.094-14.273-1.142-19.411a51.547,51.547,0,0,0,.952-8.373" transform="translate(18.887 141.931)" fill="none" stroke="#333" stroke-linecap="round" stroke-linejoin="round" stroke-width="0.427"/>
          <path id="Path_14723" data-name="Path 14723" d="M69.868,206.889c1.6.5,3.069,1,4.567,1.41m39.012-1.663c-1.39.47-2.685.893-4,1.283m0,0c-.1,6.984,1.129,16.535,6.851,18.649,8.754,3.236,19.411-8.373,21.5-43.008,0-18.663-4.441-29.533-9.135-37.109,11.418.953,35.016-5.139,42.563-27.595,4.932-11.979,1.852-27.374,0-37.68,16.622-17.889,12.8-77.834,0-77.834-15.349,0-34.57,5.709-47.51,22.074a90.021,90.021,0,0,0-35.4-6.85,88.3,88.3,0,0,0-38.251,8.2C35.287,15.523,14.46-2.689,6.874,3.343c-12.636,10.048-18.076,63.671,0,77.834-2.887,10.912-8.88,33.493,4.38,49.288,13.42,15.986,33.493,18.777,46.053,15.986-10.657,7.612-14.653,22.075-14.653,39.583,0,43.009,20.4,42.155,26.072,40.534,5.329-1.522,5.312-10.362,5.709-18.269m35.016-.38c-12.853,3.814-22.427,3.82-35.016.38" transform="translate(-30.335 12.161)" fill="none" stroke="#333" stroke-linecap="round" stroke-linejoin="round" stroke-width="0.427"/>
          <circle id="Ellipse_485" data-name="Ellipse 485" cx="2.57" cy="2.57" r="2.57" transform="translate(86.88 82.314)" fill="#fff"/>
          <ellipse id="Ellipse_486" data-name="Ellipse 486" cx="8.373" cy="4.187" rx="8.373" ry="4.187" transform="translate(49.048 93.148)" fill="#3e3e3e"/>
          <path id="Path_14724" data-name="Path 14724" d="M7.778,13.692a7.451,7.451,0,0,1,.151,1.7C7.852,14.789,7.807,14.216,7.778,13.692Z" transform="translate(49.863 86.162)" fill="#e09384"/>
          <path id="Path_14725" data-name="Path 14725" d="M5.812,19.621c0,1.469,1.9,4.982,8.133,3.9s7-7.286,6.438-9.827c.169,2.993.821,7.624,5.252,9.319,5.761,2.2,10-2.2,9.827-3.389" transform="translate(37.258 86.162)" fill="none" stroke="#3e3e3e" stroke-linecap="round" stroke-linejoin="round" stroke-width="0.32"/>
          <path id="Path_14726" data-name="Path 14726" d="M37.2,24.609C36.443,20.613,12.465.25,3.521,4.247c-14.273,6.377-3.045,58.233,0,58.613S9.537,48.778,15.89,40.975C26.738,27.654,37.965,28.605,37.2,24.609Z" transform="translate(-22.793 22.295)" fill="#fff"/>
          <path id="Path_14727" data-name="Path 14727" d="M13.228,24.577c.76-3.987,24.7-24.3,33.625-20.313,14.248,6.362,3.039,58.092,0,58.471S40.847,48.687,34.5,40.9C23.676,27.614,12.469,28.563,13.228,24.577Z" transform="translate(84.573 22.413)" fill="#fff"/>
          <path id="Path_14728" data-name="Path 14728" d="M217.319,104.934c-23.295-80.242-39.965-102.9-97.509-102.9S43.582,42.053,24.717,111.305,35.144,178.04,38.789,177.92c9.75-.322,15.725-7.084,20.764-14.939a37,37,0,0,0-.54,7.562c.391,11.8,8.091,15.122,14.626,11.629C77,191.544,85.215,198.3,85.321,201.492c.13,3.952-7.241,4.711-5.226,8.429s22.484,3.729,26.017,1.376c2.01-1.338,3.03-4.747,3.481-7.6,11.879,2.465,19.88,2.641,32.284-1.2.355,2.9,1.229,7.66,3.064,8.8,3.161,1.96,23.441,3.149,25.011-1.376s-5.325-7.957-5.427-11.049c-.093-2.81,10.972-16.072,12.827-23.5a12.588,12.588,0,0,0,13.792-3.718c6.2,4.286,12.825,6.477,16.207,6.365C213.537,177.814,236.607,171.375,217.319,104.934Z" transform="translate(118.189 11.429)" fill="#e3e0dd"/>
          <path id="Path_14729" data-name="Path 14729" d="M55.1,52.164c-18.935,51.725-13.205,67.857,15.78,81.866,3.611,1.745-8.53,12.863-11.323,28.951m23.194,2.3c-.5,8.608-4.514,14.43-9.108,16.886m32.2,20.706c1.3.3,2.549.572,3.759.823m35.07-2.108q-1.431.486-2.786.9m47.4-154.773c18.258,49.328,14.683,66.373-9.991,82.719-3.87,2.563,14.363,23.433,13.908,35.66a9.507,9.507,0,0,1-2.053,5.551m-28.052-16.079c2.673,12.022,8.463,17.927,14.26,19.8M59.553,162.98a37,37,0,0,0-.54,7.562c.391,11.8,8.091,15.122,14.626,11.629M59.553,162.98c-5.04,7.855-11.014,14.617-20.764,14.939-3.645.12-32.937,2.638-14.072-66.615S62.266,2.035,119.809,2.035s74.215,22.657,97.509,102.9c19.288,66.441-3.781,72.881-9.966,73.085-3.382.112-10.005-2.079-16.207-6.365M73.639,182.171C77,191.544,85.215,198.3,85.321,201.492c.13,3.952-7.241,4.711-5.226,8.429s22.484,3.729,26.017,1.376c2.01-1.338,3.03-4.747,3.481-7.6m0,0c11.879,2.465,19.88,2.641,32.284-1.2m0,0c.355,2.9,1.229,7.66,3.064,8.8,3.161,1.96,23.441,3.149,25.011-1.376s-5.325-7.957-5.427-11.049c-.093-2.81,10.972-16.072,12.827-23.5m0,0a12.588,12.588,0,0,0,13.792-3.718" transform="translate(118.189 11.429)" fill="none" stroke="#333" stroke-linecap="round" stroke-linejoin="round" stroke-width="0.417"/>
          <path id="Path_14730" data-name="Path 14730" d="M26.165,108.369c-17.5-10.107,3.754-69.183,16.568-97.457C31.765,46.74,36.776,61.74,57.023,73.528,54.029,89.353,43.664,118.477,26.165,108.369Z" transform="translate(125.246 68.345)" fill="#ffc5c5"/>
          <path id="Path_14731" data-name="Path 14731" d="M57.336,10.913c9.975,34.316,4.247,48.718-16.73,62.615-2.641,1.749,5.009,12.021,9.992,22.255,3.333,5.948,12.854,16.332,24.268,10.282C91.149,94.033,69.964,37.617,57.336,10.913Z" transform="translate(256.874 68.345)" fill="#ffc5c5"/>
          <path id="Path_14732" data-name="Path 14732" d="M47.719,76.82c-14.169-6.848-22.781-14.2-25.671-25.976,7.19-1.891,24.765-7.186,37.542-13.236,15.97-7.565,23.694-26.3,41.412-26.646s29.735,21.832,38.934,26.646c7.359,3.85,26.916,10.429,35.774,13.236-3.01,8.991-9.552,15.748-19.577,22.39C144.277,108.86,129.022,137.657,101,138c-22.416.275-36.949-19.836-41.412-29.925C54.651,97.889,49.618,82.995,47.719,76.82Z" transform="translate(141.347 68.638)" fill="#fff"/>
          <path id="Path_14733" data-name="Path 14733" d="M57.1,28.3a16.5,16.5,0,1,1-16.5-16.5A16.5,16.5,0,0,1,57.1,28.3Z" transform="translate(154.477 73.995)" fill="#ffc5c5"/>
          <path id="Path_14734" data-name="Path 14734" d="M70.044,28.3a16.5,16.5,0,1,1-16.5-16.5A16.5,16.5,0,0,1,70.044,28.3Z" transform="translate(237.458 73.995)" fill="#ffc5c5"/>
          <circle id="Ellipse_487" data-name="Ellipse 487" cx="8.252" cy="8.252" r="8.252" transform="translate(203.326 80.632)" fill="#3e3e3e"/>
          <circle id="Ellipse_488" data-name="Ellipse 488" cx="2.51" cy="2.51" r="2.51" transform="translate(211.746 82.684)" fill="#fff"/>
          <circle id="Ellipse_489" data-name="Ellipse 489" cx="8.252" cy="8.252" r="8.252" transform="translate(266.244 80.632)" fill="#3e3e3e"/>
          <ellipse id="Ellipse_490" data-name="Ellipse 490" cx="4.813" cy="2.407" rx="4.813" ry="2.407" transform="translate(236.332 85.446)" fill="#3e3e3e"/>
          <path id="Path_14735" data-name="Path 14735" d="M32.562,12.4a7.563,7.563,0,0,1,.153,1.723C32.636,13.512,32.591,12.929,32.562,12.4Z" transform="translate(208.755 77.863)" fill="#e09384"/>
          <path id="Path_14736" data-name="Path 14736" d="M30.567,18.414c0,1.49,1.925,5.054,8.251,3.954s7.106-7.392,6.533-9.971c.172,3.037.833,7.736,5.329,9.455,5.844,2.234,10.142-2.235,9.97-3.438" transform="translate(195.966 77.863)" fill="none" stroke="#3e3e3e" stroke-linecap="round" stroke-linejoin="round" stroke-width="0.313"/>
          <path id="Path_14737" data-name="Path 14737" d="M55.1,52.164c-18.935,51.725-13.205,67.857,15.78,81.866,3.611,1.745-8.53,12.863-11.323,28.951m23.194,2.3c-.5,8.608-4.514,14.43-9.108,16.886m32.2,20.706c1.3.3,2.549.572,3.759.823m35.07-2.108q-1.431.486-2.786.9m47.4-154.773c18.258,49.328,14.683,66.373-9.991,82.719-3.87,2.563,14.363,23.433,13.908,35.66a9.507,9.507,0,0,1-2.053,5.551m-28.052-16.079c2.673,12.022,8.463,17.927,14.26,19.8M59.553,162.98a37,37,0,0,0-.54,7.562c.391,11.8,8.091,15.122,14.626,11.629M59.553,162.98c-5.04,7.855-11.014,14.617-20.764,14.939-3.645.12-32.937,2.638-14.072-66.615S62.266,2.035,119.809,2.035s74.215,22.657,97.509,102.9c19.288,66.441-3.781,72.881-9.966,73.085-3.382.112-10.005-2.079-16.207-6.365M73.639,182.171C77,191.544,85.215,198.3,85.321,201.492c.13,3.952-7.241,4.711-5.226,8.429s22.484,3.729,26.017,1.376c2.01-1.338,3.03-4.747,3.481-7.6m0,0c11.879,2.465,19.88,2.641,32.284-1.2m0,0c.355,2.9,1.229,7.66,3.064,8.8,3.161,1.96,23.441,3.149,25.011-1.376s-5.325-7.957-5.427-11.049c-.093-2.81,10.972-16.072,12.827-23.5m0,0a12.588,12.588,0,0,0,13.792-3.718" transform="translate(118.189 11.429)" fill="none" stroke="#333" stroke-linecap="round" stroke-linejoin="round" stroke-width="0.417"/>
          <circle id="Ellipse_491" data-name="Ellipse 491" cx="2.51" cy="2.51" r="2.51" transform="translate(274.69 82.684)" fill="#fff"/>
          <path id="Path_14738" data-name="Path 14738" d="M174.242,39.537c-2.726,3.2-21.916-18.42-65.283-18.42S46.448,42.929,43.976,39.735C39.22,33.589,15.419,29.662,6.339,36.708c-3.684,16.286,9.092,41.9,9.092,43.766C9.446,94.355,1.49,128.223,17.545,152.64c14.589,17.459,33.277,14.666,39.962,14.666,3.377,0,12.72-1.011,21.142-2.012l-2.1.613c-13.522,3.5-19.043,35.906-19.043,57.356,0,52.693,20.487,54.678,27.437,52.693,6.528-1.865,6.508-12.7,6.995-22.383,15.423,4.214,27.154,4.207,42.9-.466-.126,8.558,1.382,20.258,8.393,22.849,10.725,3.964,23.782-10.259,26.346-52.693,2.052-33.947-12.59-50.361-16.321-55.491l-.932-.939c2.675.426,5.334.771,7.694.939,9.792.7,27.279,2.332,43.366-15.155,16.041-18.465,8.238-55.879,2.332-72.277,0-1.865,14.088-27.522,10.026-43.833C205.731,29.449,179.486,33.383,174.242,39.537Z" transform="translate(36.363 133.772)" fill="#fff"/>
          <path id="Path_14739" data-name="Path 14739" d="M88.441,164.091c-2.731.345-6.176.773-9.792,1.2m64.117-.254c2.849.6,6.217,1.261,9.56,1.793M86.343,251.844c1.957.619,3.76,1.227,5.6,1.728m47.8-2.038c-1.7.576-3.289,1.095-4.9,1.572m0,0c-.126,8.558,1.382,20.258,8.393,22.849,10.725,3.964,23.782-10.259,26.346-52.693,2.052-33.947-12.59-50.361-16.321-55.491l-.932-.939m-17.486,86.273c-15.747,4.673-27.478,4.68-42.9.466m0,0c-.486,9.687-.466,20.518-6.995,22.383-6.949,1.985-27.437,0-27.437-52.693,0-21.45,5.521-53.859,19.043-57.356l2.1-.613m73.677,1.539c2.675.426,5.334.771,7.694.939,9.792.7,27.279,2.332,43.366-15.155,16.041-18.465,8.238-55.879,2.332-72.277,0-1.865,14.088-27.522,10.026-43.833-10.012-7.057-36.257-3.124-41.5,3.031-2.726,3.2-21.916-18.42-65.283-18.42S46.448,42.929,43.976,39.735C39.22,33.589,15.419,29.662,6.339,36.708c-3.684,16.286,9.092,41.9,9.092,43.766C9.446,94.355,1.49,128.223,17.545,152.64c14.589,17.459,33.277,14.666,39.962,14.666,3.377,0,12.72-1.011,21.142-2.012" transform="translate(36.363 133.772)" fill="none" stroke="#442716" stroke-linecap="round" stroke-linejoin="round" stroke-width="0.378"/>
          <path id="Path_14740" data-name="Path 14740" d="M124.738,98.541c2.052-33.947-12.59-50.361-16.321-55.491l-.932-.939c4.957,25.649,7.421,78.439-36.369,78.813s-49.9-51.761-37.308-80.352l-2.1.613c-13.522,3.5-19.043,35.906-19.043,57.356,0,52.693,20.487,54.678,27.437,52.693,6.528-1.865,6.508-12.7,6.995-22.383,15.423,4.214,27.154,4.207,42.9-.466-.126,8.558,1.382,20.258,8.393,22.849C109.117,155.2,122.173,140.975,124.738,98.541Z" transform="translate(81.204 258.494)" fill="#dbdbdb"/>
          <path id="Path_14741" data-name="Path 14741" d="M89.9,29.67C79.891,22.613,53.646,26.546,48.4,32.7c-1.59,1.866-8.781-4.711-23.1-10.516,2.554,36.979,15.4,51.243,58.514,64.923a121.712,121.712,0,0,0-3.936-13.6C79.878,71.637,93.966,45.981,89.9,29.67Z" transform="translate(162.203 140.609)" fill="#dbdbdb"/>
          <path id="Path_14742" data-name="Path 14742" d="M6.339,29.871c9.08-7.046,32.881-3.119,37.637,3.027.786,1.015,3.254-.494,7.648-3.027a122.251,122.251,0,0,1,15.368-7.687C64.674,65.247,51.96,79.042,11.034,87.107a87.446,87.446,0,0,1,4.4-13.47C15.431,71.774,2.655,46.157,6.339,29.871Z" transform="translate(36.363 140.609)" fill="#dbdbdb"/>
          <path id="Path_14743" data-name="Path 14743" d="M35.853,21.382q3.929-.258,8.16-.265,1.416,0,2.8.03,1.536.033,3.031.1,2.875.132,5.6.386A112.8,112.8,0,0,1,68.262,23.56c-1.4,7.657-3.217,16.892-8.627,16.892s-5.829-10.517-4.2-18.815q-2.72-.251-5.6-.386c.932,7.261-.419,21.6-6.761,21.784S33.289,29.021,33.988,21.52q-3,.243-5.829.622c1.632,7.742,2.8,17.566-2.565,18.311S15.958,32.235,15.8,24.5a108.527,108.527,0,0,1,12.357-2.363q2.825-.375,5.829-.622Q34.912,21.444,35.853,21.382Z" transform="translate(101.308 133.772)" fill="#dbdbdb"/>
          <path id="Path_14744" data-name="Path 14744" d="M7.542,25.474c2.238-2.8,18.808-1.166,26.813,0,1.166,2.8-7.927,7.694-10.026,11.192S22,52.521,16.635,52.287,4.744,28.972,7.542,25.474Z" transform="translate(44.053 151.799)" fill="#fff"/>
          <path id="Path_14745" data-name="Path 14745" d="M56.11,25.467c-2.232-2.806-18.758-1.169-26.741,0-1.163,2.807,7.906,7.717,10,11.225s2.325,15.9,7.673,15.667S58.9,28.975,56.11,25.467Z" transform="translate(187.633 151.723)" fill="#fff"/>
          <circle id="Ellipse_492" data-name="Ellipse 492" cx="9.326" cy="9.326" r="9.326" transform="translate(99.856 215.277)" fill="#3e3e3e"/>
          <circle id="Ellipse_493" data-name="Ellipse 493" cx="3.031" cy="3.031" r="3.031" transform="translate(110.352 217.842)" fill="#fff"/>
          <circle id="Ellipse_494" data-name="Ellipse 494" cx="9.326" cy="9.326" r="9.326" transform="translate(170.735 215.277)" fill="#3e3e3e"/>
          <path id="Path_14746" data-name="Path 14746" d="M18.7,37.071c2.984-.373,4.507-4.352,4.9-6.295.7,1.71,2.518,5.363,4.2,6.295.466,8.705.28,26.114-4.2,26.114S18.467,45.776,18.7,37.071Z" transform="translate(119.627 195.692)" fill="#e09384"/>
          <path id="Path_14747" data-name="Path 14747" d="M23.909,37.071c2.984-.373,4.507-4.352,4.9-6.295.7,1.71,2.518,5.363,4.2,6.295m-9.093,0a21.539,21.539,0,0,1-6.062,0m6.062,0c-.233,8.705.419,26.114,4.9,26.114S33.468,45.776,33,37.071m0,0c1.679.933,6.14.389,8.16,0" transform="translate(114.418 195.692)" fill="none" stroke="#3e3e3e" stroke-linecap="round" stroke-linejoin="round" stroke-width="0.378"/>
          <path id="Path_14748" data-name="Path 14748" d="M34.45,37.834c0,3.863-5.428,6.995-12.124,6.995S10.2,41.7,10.2,37.834s5.429-6.995,12.125-6.995S34.45,33.971,34.45,37.834Z" transform="translate(65.407 196.096)" fill="#ffc5c5"/>
          <path id="Path_14749" data-name="Path 14749" d="M49.8,37.834c0,3.863-5.428,6.995-12.124,6.995S25.555,41.7,25.555,37.834s5.428-6.995,12.124-6.995S49.8,33.971,49.8,37.834Z" transform="translate(163.834 196.096)" fill="#ffc5c5"/>
          <path id="Path_14750" data-name="Path 14750" d="M88.441,164.091c-2.731.345-6.176.773-9.792,1.2m64.117-.254c2.849.6,6.217,1.261,9.56,1.793M86.343,251.844c1.957.619,3.76,1.227,5.6,1.728m47.8-2.038c-1.7.576-3.289,1.095-4.9,1.572m0,0c-.126,8.558,1.382,20.258,8.393,22.849,10.725,3.964,23.782-10.259,26.346-52.693,2.052-33.947-12.59-50.361-16.321-55.491l-.932-.939m-17.486,86.273c-15.747,4.673-27.478,4.68-42.9.466m0,0c-.486,9.687-.466,20.518-6.995,22.383-6.949,1.985-27.437,0-27.437-52.693,0-21.45,5.521-53.859,19.043-57.356l2.1-.613m73.677,1.539c2.675.426,5.334.771,7.694.939,9.792.7,27.279,2.332,43.366-15.155,16.041-18.465,8.238-55.879,2.332-72.277,0-1.865,14.088-27.522,10.026-43.833-10.012-7.057-36.257-3.124-41.5,3.031-2.726,3.2-21.916-18.42-65.283-18.42S46.448,42.929,43.976,39.735C39.22,33.589,15.419,29.662,6.339,36.708c-3.684,16.286,9.092,41.9,9.092,43.766C9.446,94.355,1.49,128.223,17.545,152.64c14.589,17.459,33.277,14.666,39.962,14.666,3.377,0,12.72-1.011,21.142-2.012" transform="translate(36.363 133.772)" fill="none" stroke="#333" stroke-linecap="round" stroke-linejoin="round" stroke-width="0.503"/>
          <circle id="Ellipse_495" data-name="Ellipse 495" cx="3.031" cy="3.031" r="3.031" transform="translate(181.232 217.842)" fill="#fff"/>
        </g>
      </g>
    </g>
  </g>
</svg>
