<svg xmlns="http://www.w3.org/2000/svg" width="98.002" height="81.002" viewBox="0 0 98.002 81.002">
  <g id="Group_2995" data-name="Group 2995" transform="translate(-920.5 -724.5)">
    <g id="Group_2992" data-name="Group 2992" transform="translate(31)">
      <path id="Union_9" data-name="Union 9" d="M-11305-220l-23.5,22Zm-47,0,23.5,22Z" transform="translate(1168.501 -10563.5) rotate(-90)" fill="rgba(0,0,0,0)" stroke="#ff7f00" stroke-linecap="round" stroke-linejoin="round" stroke-width="4"/>
      <path id="Union_6" data-name="Union 6" d="M-11305-220l-23.5,22Zm-47,0,23.5,22Z" transform="translate(1168.501 -10563.5) rotate(-90)" fill="rgba(0,0,0,0)" stroke="#ff7f00" stroke-linecap="round" stroke-linejoin="round" stroke-width="4"/>
    </g>
    <g id="Group_2993" data-name="Group 2993" transform="translate(9)">
      <path id="Union_9-2" data-name="Union 9" d="M-11305-220l-23.5,22Zm-47,0,23.5,22Z" transform="translate(1168.501 -10563.5) rotate(-90)" fill="rgba(0,0,0,0)" stroke="#ff7f00" stroke-linecap="round" stroke-linejoin="round" stroke-width="4"/>
      <path id="Union_6-2" data-name="Union 6" d="M-11305-220l-23.5,22Zm-47,0,23.5,22Z" transform="translate(1168.501 -10563.5) rotate(-90)" fill="rgba(0,0,0,0)" stroke="#ff7f00" stroke-linecap="round" stroke-linejoin="round" stroke-width="4"/>
    </g>
    <g id="Group_2994" data-name="Group 2994" transform="translate(-11)">
      <path id="Union_9-3" data-name="Union 9" d="M-11305-220l-23.5,22Zm-47,0,23.5,22Z" transform="translate(1168.501 -10563.5) rotate(-90)" fill="rgba(0,0,0,0)" stroke="#ff7f00" stroke-linecap="round" stroke-linejoin="round" stroke-width="4"/>
      <path id="Union_6-3" data-name="Union 6" d="M-11305-220l-23.5,22Zm-47,0,23.5,22Z" transform="translate(1168.501 -10563.5) rotate(-90)" fill="rgba(0,0,0,0)" stroke="#ff7f00" stroke-linecap="round" stroke-linejoin="round" stroke-width="4"/>
    </g>
  </g>
</svg>
