<svg xmlns="http://www.w3.org/2000/svg" width="195.902" height="31.081" viewBox="0 0 195.902 31.081">
  <g id="Header_logo" transform="translate(-164.996 -756.354)">
    <path id="Path_1" data-name="Path 1" d="M201.707,759.52a7.9,7.9,0,0,0-6.727.327c-1.411-1.1-6.056-4.508-7.943-3.2L169.8,768.616h0c-2.146,1.734-3.286,2.388-4.124,4.373a8.608,8.608,0,0,0,4.583,11.278,7.9,7.9,0,0,0,6.726-.327c1.411,1.1,6.056,4.508,7.943,3.2l17.236-11.967h0c2.146-1.733,3.286-2.389,4.124-4.373A8.608,8.608,0,0,0,201.707,759.52Zm1.736,10.077a5.5,5.5,0,0,1-1.385,1.95l-6.034,4.189L183.2,784.644s-.294.511-5.888-.85c.709-.334,1.433-.731,2.186-1.172l16.716-11.606,1.033,1.69,3.407-6.257-7.122.178,1.1,1.792-12.436,8.634-5.235,3.635a5.773,5.773,0,0,1-1.782.835,5.29,5.29,0,0,1-3.71-.1,5.52,5.52,0,0,1-1.553-9.18l6.034-4.189,12.829-8.907s.294-.511,5.888.85c-.709.334-1.433.731-2.186,1.172l-16.716,11.607-1.033-1.69-3.407,6.257,7.122-.178-1.1-1.792,12.436-8.634,5.235-3.635a5.773,5.773,0,0,1,1.782-.835,5.29,5.29,0,0,1,3.71.1A5.518,5.518,0,0,1,203.443,769.6Z" transform="translate(0 0)" fill="#ff7f00"/>
    <path id="Path_2" data-name="Path 2" d="M907.053,863.207a0,0,0,0,0,0,0v11.006a0,0,0,0,1-.005,0l-11.109-8.567-3.082-2.367a0,0,0,0,0-.005,0v17.23a0,0,0,0,0,0,0h3.081a0,0,0,0,0,0,0V869.586a0,0,0,0,1,.005,0l11.109,8.567,3.082,2.367a0,0,0,0,0,.005,0v-17.28a0,0,0,0,0,0,0Z" transform="translate(-681.547 -100.056)" fill="#ff7f00"/>
    <path id="Path_3" data-name="Path 3" d="M1208.451,862.844a4.659,4.659,0,0,0-4.643,4.668V880.1a0,0,0,0,0,0,0h3.056a0,0,0,0,0,0,0v-7.922a0,0,0,0,1,0,0h11.133a0,0,0,0,0,0,0V869.1a0,0,0,0,0,0,0H1206.9a0,0,0,0,1,0,0v-1.6a1.589,1.589,0,0,1,1.584-1.584h12.615a0,0,0,0,0,0,0v-3.081a0,0,0,0,0,0,0Z" transform="translate(-972.724 -99.692)" fill="#ff7f00"/>
    <path id="Path_4" data-name="Path 4" d="M1513.993,863.6a0,0,0,0,0,0,0v3.081a0,0,0,0,0,0,0h7.082a0,0,0,0,1,0,0v14.2a0,0,0,0,0,0,0h3.081a0,0,0,0,0,0,0v-14.2a0,0,0,0,1,0,0h7.082a0,0,0,0,0,0,0V863.6a0,0,0,0,0,0,0Z" transform="translate(-1263.172 -100.419)" fill="#ff7f00"/>
    <path id="Path_5" data-name="Path 5" d="M1836.606,863.207h-6.984a4.685,4.685,0,0,0-4.671,4.671v.1a4.589,4.589,0,0,0,.815,2.643,4.327,4.327,0,0,0,.593.741,4.618,4.618,0,0,0,3.236,1.309h6.224a2.371,2.371,0,1,1-.031,4.742h-5.379a2.372,2.372,0,0,1-2.371-2.368,0,0,0,0,0,0,0h-3.081a0,0,0,0,0,0,0,5.46,5.46,0,0,0,5.458,5.455h5.329a5.459,5.459,0,0,0,4.3-8.916h0c-.074-.074-.123-.148-.2-.222a5.423,5.423,0,0,0-4.026-1.778H1829.6a1.589,1.589,0,0,1-1.584-1.584V867.9a1.589,1.589,0,0,1,1.584-1.584h7.008a1.589,1.589,0,0,1,1.584,1.584V868a0,0,0,0,0,0,0l3.081-.025a0,0,0,0,0,0,0v-.092A4.685,4.685,0,0,0,1836.606,863.207Z" transform="translate(-1554.35 -100.056)" fill="#ff7f00"/>
    <path id="Path_6" data-name="Path 6" d="M2125,863.207h-3.2a0,0,0,0,0,0,0l-3.11,10.415a0,0,0,0,1-.006,0L2116.066,870l-.494-.692-1.405-1.923a0,0,0,0,0-.005,0l-1.405,1.923-.494.692-2.614,3.626a0,0,0,0,1-.006,0l-3.109-10.415a0,0,0,0,0,0,0h-3.2a0,0,0,0,0,0,0l4.024,13.556,1.11,3.7a0,0,0,0,0,.006,0l2.269-3.132,3.406-4.714a0,0,0,0,1,.005,0l3.431,4.714,2.269,3.156a0,0,0,0,0,.005,0l1.109-3.723,4.05-13.556A0,0,0,0,0,2125,863.207Z" transform="translate(-1815.012 -100.056)" fill="#ff7f00"/>
    <path id="Path_7" data-name="Path 7" d="M2412.251,863.269a0,0,0,0,0-.005,0l-7.234,14.2-1.578,3.083a0,0,0,0,0,0,0h3.451l0,0,1.58-3.086,3.776-7.4a0,0,0,0,1,.005,0l3.776,7.4,1.58,3.086,0,0h3.451a0,0,0,0,0,0,0l-1.578-3.083Z" transform="translate(-2096.03 -100.112)" fill="#ff7f00"/>
    <path id="Path_8" data-name="Path 8" d="M2718.447,864.565a4.629,4.629,0,0,0-3.285-1.358h-10.889a0,0,0,0,0,0,0v17.283a0,0,0,0,0,0,0h3.081a0,0,0,0,0,0,0v-7.947a0,0,0,0,1,0,0h8.271v-.025h.148a4.119,4.119,0,0,0,1.333-.37,4.682,4.682,0,0,0,2.717-4.248,4.732,4.732,0,0,0-1.358-3.31Zm-2.618,4.742v.025a1.44,1.44,0,0,1-.642.148h-7.826a0,0,0,0,1,0,0V866.3a0,0,0,0,1,0,0h7.826a1.557,1.557,0,0,1,1.112.445,1.63,1.63,0,0,1,.469,1.136A1.569,1.569,0,0,1,2715.829,869.308Z" transform="translate(-2377.728 -100.056)" fill="#ff7f00"/>
    <path id="Path_9" data-name="Path 9" d="M3000.912,868l3.081-.025a0,0,0,0,0,0,0v-.092a4.685,4.685,0,0,0-4.671-4.671h-6.983a4.685,4.685,0,0,0-4.671,4.671v.1a4.587,4.587,0,0,0,.815,2.643,4.324,4.324,0,0,0,.592.741,4.619,4.619,0,0,0,3.236,1.309h6.224a2.371,2.371,0,1,1-.031,4.742h-5.378a2.372,2.372,0,0,1-2.372-2.368,0,0,0,0,0,0,0h-3.081a0,0,0,0,0,0,0,5.46,5.46,0,0,0,5.459,5.455h5.328a5.459,5.459,0,0,0,4.3-8.916h0c-.074-.074-.124-.148-.2-.222a5.423,5.423,0,0,0-4.026-1.778h-6.221a1.589,1.589,0,0,1-1.584-1.584V867.9a1.589,1.589,0,0,1,1.584-1.584h7.008a1.589,1.589,0,0,1,1.584,1.584V868A0,0,0,0,0,3000.912,868Z" transform="translate(-2643.098 -100.056)" fill="#ff7f00"/>
  </g>
</svg>
