<svg xmlns="http://www.w3.org/2000/svg" width="92" height="92" viewBox="0 0 92 92">
  <g id="lighting" transform="translate(-0.002)">
    <g id="Group_20" data-name="Group 20" transform="translate(23.094 35.543)">
      <g id="Group_19" data-name="Group 19">
        <path id="Path_5813" data-name="Path 5813" d="M139.6,198.647a1.8,1.8,0,0,0-2.477-.567l-7.767,4.875A1.8,1.8,0,1,0,131.268,206l7.767-4.875A1.8,1.8,0,0,0,139.6,198.647Z" transform="translate(-128.516 -197.805)" fill="#ff7f00"/>
      </g>
    </g>
    <g id="Group_22" data-name="Group 22" transform="translate(18.686 43.164)">
      <g id="Group_21" data-name="Group 21">
        <path id="Path_5814" data-name="Path 5814" d="M107.34,241.06a1.8,1.8,0,0,0-2.477-.569l-.036.023a1.8,1.8,0,1,0,1.907,3.046l.036-.023A1.8,1.8,0,0,0,107.34,241.06Z" transform="translate(-103.984 -240.217)" fill="#ff7f00"/>
      </g>
    </g>
    <g id="Group_24" data-name="Group 24" transform="translate(0.002 0)">
      <g id="Group_23" data-name="Group 23" transform="translate(0 0)">
        <path id="Path_5815" data-name="Path 5815" d="M91.7.794a1.8,1.8,0,0,0-2.3-.6L36.206,26.9a1.8,1.8,0,0,0-.037,3.193l10.478,5.569-23.9,15.005a1.8,1.8,0,0,0,.112,3.109L34.5,59.965.633,88.836a1.8,1.8,0,0,0,2.038,2.939l54.621-30.31a1.8,1.8,0,0,0-.029-3.158L46.62,52.65,71.447,36.669a1.8,1.8,0,0,0-.141-3.1l-9.19-4.795L91.388,3.149A1.8,1.8,0,0,0,91.7.794Zm-33.924,27a1.8,1.8,0,0,0,.352,2.945l8.778,4.58L42.1,51.287a1.8,1.8,0,0,0,.129,3.1l10.427,5.542L16.637,79.915l22.2-18.929a1.8,1.8,0,0,0-.322-2.954L27.284,52.061l23.9-15.006a1.8,1.8,0,0,0-.112-3.109l-10.15-5.394L78.416,9.728Z" transform="translate(-0.002 0)" fill="#ff7f00"/>
      </g>
    </g>
    <g id="Group_26" data-name="Group 26" transform="translate(64.749 61.5)">
      <g id="Group_25" data-name="Group 25">
        <path id="Path_5816" data-name="Path 5816" d="M363.736,343.185a1.8,1.8,0,0,0-2.444-.7l-.037.021A1.8,1.8,0,1,0,363,345.65l.037-.021A1.8,1.8,0,0,0,363.736,343.185Z" transform="translate(-360.331 -342.261)" fill="#ff7f00"/>
      </g>
    </g>
    <g id="Group_28" data-name="Group 28" transform="translate(52.216 64.025)">
      <g id="Group_27" data-name="Group 27">
        <path id="Path_5817" data-name="Path 5817" d="M301.971,357.238a1.8,1.8,0,0,0-2.443-.7l-8.018,4.45a1.8,1.8,0,1,0,1.744,3.142l8.018-4.45A1.8,1.8,0,0,0,301.971,357.238Z" transform="translate(-290.585 -356.312)" fill="#ff7f00"/>
      </g>
    </g>
  </g>
</svg>
