<svg id="Layer_1" data-name="Layer 1" xmlns="http://www.w3.org/2000/svg" viewBox="0 0 3403.29 671.5"><defs><style>.cls-1{fill:#ff7f00;}</style></defs><title>Nft swaps logo</title><path class="cls-1" d="M347,527.81c99.12,25,104.12,16.22,104.12,16.22L652.72,404l94.85-65.85a86.79,86.79,0,0,0-24.41-144.3c-20-8.47-37.57-7.19-58.31-1.57a90.49,90.49,0,0,0-28,13.12l-82.28,57.13L359.08,398.27l17.22,28.17-111.95,2.8,53.55-98.35,16.23,26.56L596.89,175c51.44-30.14,94.35-47.35,145.16-25.9a135.31,135.31,0,0,1,72,177.28c-13.17,31.19-31.08,41.49-64.82,68.73l0,0L478.3,583.26C443.12,607.69,347,527.81,347,527.81Z"/><path class="cls-1" d="M642.81,159.45c-99.12-25-104.12-16.23-104.12-16.23L337,283.24,242.2,349.09a86.77,86.77,0,0,0,24.41,144.3c20,8.46,37.56,7.19,58.3,1.57a90.72,90.72,0,0,0,28-13.12l82.29-57.14L630.68,289l-17.22-28.17L725.41,258l-53.54,98.36L655.63,329.8,392.87,512.24c-51.44,30.14-94.35,47.34-145.15,25.9a135.32,135.32,0,0,1-72-177.28c13.17-31.19,31.09-41.49,64.82-68.74h0L511.46,104C546.64,79.57,642.81,159.45,642.81,159.45Z"/><path class="cls-1" d="M1164.61,206.64V478.26a.05.05,0,0,1-.08,0l-48.45-37.21L941.46,306.43s-.08,0-.08,0V478.31a.05.05,0,0,1,0,.05H892.9a.05.05,0,0,1,0-.05V207.47s0-.06.08,0l48.45,37.21L1116,379.3a.05.05,0,0,0,.08,0v-173a0,0,0,0,1,.05,0l48.43.38A.05.05,0,0,1,1164.61,206.64Z"/><path class="cls-1" d="M1475.57,205.87V254.3a0,0,0,0,1,0,0H1277.23a25,25,0,0,0-24.89,24.89v25.14a0,0,0,0,0,.05.05H1427a0,0,0,0,1,0,.05v48.43a0,0,0,0,1,0,0H1252a0,0,0,0,0,0,.05V477.53a0,0,0,0,1,0,.05h-48a0,0,0,0,1,0-.05V279.58c0-40.37,32.61-73.37,73-73.37l198.72-.39A0,0,0,0,1,1475.57,205.87Z"/><path class="cls-1" d="M1785.36,206.64v48.43a0,0,0,0,1,0,.05H1674a.05.05,0,0,0,0,0V478.31a.05.05,0,0,1,0,.05h-48.43a.05.05,0,0,1,0-.05V255.17a.05.05,0,0,0-.05,0H1514a0,0,0,0,1,0-.05V206.64a.05.05,0,0,1,0,0h271.27A.05.05,0,0,1,1785.36,206.64Z"/><path class="cls-1" d="M2033,281.47V280a25,25,0,0,0-24.89-24.9H1898a25,25,0,0,0-24.9,24.9v1.45a25,25,0,0,0,24.9,24.9h97.78a85.24,85.24,0,0,1,63.28,27.95c1.17,1.17,1.94,2.33,3.11,3.5h0a85.92,85.92,0,0,1,19.2,60.33c-3.13,45.19-41.56,79.82-86.85,79.82h-83.76a85.83,85.83,0,0,1-85.8-85.75,0,0,0,0,1,0-.05h48.43a0,0,0,0,1,0,.05,37.28,37.28,0,0,0,37.27,37.22h84.54c19.67,0,36.59-14.89,38-34.5,1.61-21.83-16.07-40-37.56-40h-97.83a72.59,72.59,0,0,1-50.86-20.58,68.29,68.29,0,0,1-9.32-11.64A72.19,72.19,0,0,1,1825,281.14v-1.51a73.64,73.64,0,0,1,73.43-73.42h109.77a73.64,73.64,0,0,1,73.42,73.42v1.46a.05.05,0,0,1-.05.05l-48.43.38A.05.05,0,0,1,2033,281.47Z"/><path class="cls-1" d="M2380.5,419.35l-17.44,58.52a.05.05,0,0,1-.09,0l-35.65-49.62-53.93-74.09a0,0,0,0,0-.08,0l-53.54,74.09-35.65,49.23a.05.05,0,0,1-.09,0l-17.44-58.13-63.27-213.08a.05.05,0,0,1,0-.06h50.37a.05.05,0,0,1,.05,0l48.87,163.7s.07.05.09,0l41.1-57,7.76-10.87,22.09-30.23a0,0,0,0,1,.08,0l22.09,30.23,7.76,10.87,41.1,57s.07,0,.09,0l48.87-163.7a.05.05,0,0,1,0,0h50.37a0,0,0,0,1,0,.06Z"/><path class="cls-1" d="M2680.52,478h-54.24a.05.05,0,0,1-.05,0l-24.83-48.5L2542,313.06a0,0,0,0,0-.08,0L2482.6,429.44l-24.83,48.5a.05.05,0,0,1-.05,0h-54.24a0,0,0,0,1,0-.07l24.81-48.46L2542,206.29a0,0,0,0,1,.08,0l113.71,223.15,24.81,48.46A0,0,0,0,1,2680.52,478Z"/><path class="cls-1" d="M2927.5,228a74.37,74.37,0,0,1,21.36,52,73.6,73.6,0,0,1-42.71,66.78,65.06,65.06,0,0,1-21,5.82h-2.33V353h-130a0,0,0,0,0,0,.05V477.92a0,0,0,0,1-.05.05h-48.43a0,0,0,0,1-.05-.05V206.26a0,0,0,0,1,.05,0h171.16a72.74,72.74,0,0,1,51.63,21.35ZM2886,302.1a24.65,24.65,0,0,0,14.75-22.52,25.61,25.61,0,0,0-7.37-17.86,24.49,24.49,0,0,0-17.47-7h-123a0,0,0,0,0,0,0v50a.05.05,0,0,0,0,.05h123a22.67,22.67,0,0,0,10.09-2.33Z"/><path class="cls-1" d="M3195.76,281.47V280a25,25,0,0,0-24.9-24.9H3060.71a25,25,0,0,0-24.9,24.9v1.45a25,25,0,0,0,24.9,24.9h97.78a85.24,85.24,0,0,1,63.28,27.95c1.17,1.17,1.94,2.33,3.11,3.5h0a85.92,85.92,0,0,1,19.2,60.33C3241,443.34,3202.52,478,3157.23,478h-83.76a85.83,85.83,0,0,1-85.8-85.75,0,0,0,0,1,0-.05h48.43a0,0,0,0,1,0,.05,37.28,37.28,0,0,0,37.27,37.22H3158c19.67,0,36.59-14.89,38-34.5,1.61-21.83-16.07-40-37.56-40h-97.83a72.59,72.59,0,0,1-50.86-20.58,67.8,67.8,0,0,1-9.32-11.64,72.19,72.19,0,0,1-12.81-41.54v-1.51a73.64,73.64,0,0,1,73.43-73.42h109.76a73.64,73.64,0,0,1,73.43,73.42v1.46a.05.05,0,0,1-.05.05l-48.43.38A0,0,0,0,1,3195.76,281.47Z"/></svg>