<svg xmlns="http://www.w3.org/2000/svg" width="39.54" height="29.279" viewBox="0 0 39.54 29.279">
  <g id="Logo_icon_white" transform="translate(-1184.095 -798.746)">
    <path id="Path_5810" data-name="Path 5810" d="M1237.317,841.545c5.94,1.5,6.24.972,6.24.972l12.085-8.391,5.684-3.946a5.2,5.2,0,0,0-1.463-8.648,4.983,4.983,0,0,0-3.495-.094,5.439,5.439,0,0,0-1.679.786l-4.931,3.424-11.714,8.133,1.032,1.688-6.709.168,3.209-5.894.973,1.592,15.747-10.933c3.083-1.806,5.655-2.837,8.7-1.552a8.109,8.109,0,0,1,4.317,10.624c-.789,1.869-1.863,2.486-3.885,4.119h0l-16.236,11.273C1243.08,846.332,1237.317,841.545,1237.317,841.545Z" transform="translate(-42.317 -17.121)" fill="#fff"/>
    <path id="Path_5811" data-name="Path 5811" d="M1212.73,802.348c-5.94-1.5-6.24-.972-6.24-.972l-12.085,8.391-5.684,3.946a5.2,5.2,0,0,0,1.463,8.648,4.982,4.982,0,0,0,3.494.094,5.441,5.441,0,0,0,1.679-.786l4.931-3.424L1212,810.111l-1.032-1.689,6.709-.168-3.209,5.894-.973-1.592-15.747,10.933c-3.083,1.806-5.655,2.837-8.7,1.552a8.109,8.109,0,0,1-4.317-10.624c.789-1.869,1.863-2.486,3.885-4.119h0l16.236-11.273C1206.967,797.561,1212.73,802.348,1212.73,802.348Z" transform="translate(0)" fill="#fff"/>
  </g>
</svg>
