<svg xmlns="http://www.w3.org/2000/svg" width="21" height="16.663" viewBox="0 0 21 16.663"><defs><style>.a{fill:#ff7f00;}</style></defs><path class="a" d="M16.688,67.4a.82.82,0,0,0-.265-.686l-1.958-2.362V64h6.087l4.706,10.32L29.4,64h5.8v.352l-1.676,1.606a.489.489,0,0,0-.187.469V78.236a.489.489,0,0,0,.187.469l1.637,1.606v.352H26.925v-.352l1.7-1.645c.165-.165.165-.217.165-.469V68.654L24.068,80.632H23.43L17.942,68.654v8.027a1.093,1.093,0,0,0,.3.92l2.205,2.674v.352H14.2v-.347L16.405,77.6a1.058,1.058,0,0,0,.282-.92Z" transform="translate(-14.2 -64)"/></svg>