<svg xmlns="http://www.w3.org/2000/svg" width="46.8" height="42" viewBox="0 0 46.8 42"><defs><style>.a{fill:#ff7f00;}.b{fill:#ffc891;}</style></defs><g transform="translate(0 -26.256)"><g transform="translate(0 26.256)"><path class="a" d="M43.8,32.256H3a3,3,0,1,1,0-6H43.8a3,3,0,0,1,0,6Z" transform="translate(0 -26.256)"/><path class="a" d="M27,229.179H3a3,3,0,1,1,0-6H27a3,3,0,1,1,0,6Z" transform="translate(0 -205.179)"/></g><path class="b" d="M401.646,229.179h-4.8a3,3,0,1,1,0-6h4.8a3,3,0,0,1,0,6Z" transform="translate(-357.846 -178.923)"/><path class="a" d="M43.8,426.1H3a3,3,0,0,1,0-6H43.8a3,3,0,0,1,0,6Z" transform="translate(0 -357.846)"/></g></svg>