<svg xmlns="http://www.w3.org/2000/svg" width="65.445" height="80.518" viewBox="0 0 65.445 80.518">
  <g id="money" transform="translate(-47.923 -0.001)">
    <g id="Group_31" data-name="Group 31" transform="translate(67.396 18.415)">
      <g id="Group_30" data-name="Group 30">
        <g id="Group_29" data-name="Group 29">
          <path id="Path_5820" data-name="Path 5820" d="M316.209,117.177h.094S316.23,116.993,316.209,117.177Z" transform="translate(-293.491 -117.095)" fill="#ff7f00"/>
          <path id="Path_5821" data-name="Path 5821" d="M171.747,117.177h.094C171.82,116.993,171.747,117.177,171.747,117.177Z" transform="translate(-171.747 -117.095)" fill="#ff7f00"/>
        </g>
      </g>
    </g>
    <g id="Group_33" data-name="Group 33" transform="translate(47.923 0.001)">
      <g id="Group_32" data-name="Group 32" transform="translate(0 0)">
        <path id="Path_5822" data-name="Path 5822" d="M112.805,24.289a3.7,3.7,0,0,0-2.321-1.652l-5.1-1.173,2.357-.66a3.723,3.723,0,1,0-2.007-7.17L94.741,16.71a3.748,3.748,0,0,0-1.183-1.3C95.788,11.262,99,4.219,99,1.189A1.2,1.2,0,0,0,97.577.024,58.935,58.935,0,0,1,85.152,1.268,71.671,71.671,0,0,1,72.713.027,1.2,1.2,0,0,0,71.446,1.8a12.321,12.321,0,0,1,1.527,4.076C68.94,6,64.757,5.511,61.591,3.928a1.2,1.2,0,0,0-1.7,1.258,25.746,25.746,0,0,0,5.019,12.123h-.045a3.722,3.722,0,0,0-.486,7.413,44.517,44.517,0,0,1-5.222,6.556c-4.242,4.714-9.05,10.057-10.667,18.684a27.657,27.657,0,0,0,.077,11.48,21.264,21.264,0,0,0,4.36,8.765,26.847,26.847,0,0,0,11.507,7.831,42.9,42.9,0,0,0,28.746,0,26.849,26.849,0,0,0,11.507-7.831,21.263,21.263,0,0,0,4.36-8.765,27.659,27.659,0,0,0,.077-11.48c-1.618-8.627-6.425-13.97-10.667-18.684-1.44-1.6-2.81-3.126-3.959-4.675l14.323,3.291a3.723,3.723,0,0,0,3.989-5.6ZM85.126,3.644A60.006,60.006,0,0,0,96.4,2.667a61.553,61.553,0,0,1-5.2,12.119,3.73,3.73,0,0,0-3.245,2.523h-3.3c-.075-.161-.157-.337-.249-.532-1.02-2.168-3.143-6.68-3.143-10.519a1.2,1.2,0,0,0-1.421-1.165,41.928,41.928,0,0,1-4.487.641,15.323,15.323,0,0,0-.8-2.961A80.019,80.019,0,0,0,85.126,3.644Zm7.7,14.853v5.069a1.347,1.347,0,1,1-2.693,0V18.5a1.347,1.347,0,1,1,2.693,0ZM62.657,6.937a30.044,30.044,0,0,0,10.57,1.325l2.355-.149c1.111-.1,2.238-.249,3.373-.441a31.747,31.747,0,0,0,3.07,9.637H67.938a1.215,1.215,0,0,0-.087-.122A22.737,22.737,0,0,1,62.657,6.937Zm34.029,25.93c4.033,4.482,8.6,9.561,10.1,17.533,1.376,7.337.053,13.49-3.93,18.29-4.912,5.919-13.9,9.452-24.051,9.452S59.663,74.608,54.751,68.69c-3.984-4.8-5.306-10.953-3.93-18.29,1.495-7.972,6.066-13.051,10.1-17.533a38.955,38.955,0,0,0,6.149-8.113h2.9a1.188,1.188,0,0,0,0-2.376H64.861a1.347,1.347,0,0,1,0-2.693H87.753v2.693H75.633a1.188,1.188,0,0,0,0,2.376H87.948a3.723,3.723,0,0,0,4.084,2.493A57.78,57.78,0,0,0,96.685,32.867ZM95.2,19.049l11.171-3.127a1.347,1.347,0,1,1,.726,2.593L100.711,20.3a1.18,1.18,0,0,0-.15.054L95.2,19.125v-.076Zm15.764,7.517a1.347,1.347,0,0,1-1.614,1.011L95.124,24.309a3.732,3.732,0,0,0,.075-.743v-2l14.753,3.39A1.359,1.359,0,0,1,110.962,26.567Z" transform="translate(-47.923 -0.001)" fill="#ff7f00"/>
      </g>
    </g>
    <g id="Group_35" data-name="Group 35" transform="translate(68.108 29.982)">
      <g id="Group_34" data-name="Group 34">
        <path id="Path_5823" data-name="Path 5823" d="M194.575,209.5a3.093,3.093,0,0,0,3.089-3.089v-1.9a8.805,8.805,0,0,0-7.6-8.712v-2.06a3.089,3.089,0,1,0-6.178,0v2.218A9.743,9.743,0,0,0,186.02,215.2h1.9a3.564,3.564,0,1,1,0,7.129H185.07a2.617,2.617,0,0,1-2.614-2.614,3.089,3.089,0,1,0-6.179,0,8.805,8.805,0,0,0,7.6,8.712v2.06a3.089,3.089,0,1,0,6.179,0v-2.218a9.743,9.743,0,0,0-2.139-19.248h-1.9a3.564,3.564,0,0,1,0-7.129h2.852a2.617,2.617,0,0,1,2.614,2.614v1.9A3.093,3.093,0,0,0,194.575,209.5Zm-5.7-9.98H186.02a5.941,5.941,0,1,0,0,11.881h1.9a7.366,7.366,0,0,1,.819,14.686,1.188,1.188,0,0,0-1.057,1.181v3.222a.713.713,0,0,1-1.426,0v-3.168a1.188,1.188,0,0,0-1.188-1.188,6.423,6.423,0,0,1-6.416-6.416.713.713,0,0,1,1.426,0,5,5,0,0,0,4.99,4.99h2.852a5.941,5.941,0,1,0,0-11.881h-1.9a7.366,7.366,0,0,1-.82-14.686,1.188,1.188,0,0,0,1.057-1.181v-3.222a.713.713,0,1,1,1.426,0v3.168a1.188,1.188,0,0,0,1.188,1.188,6.423,6.423,0,0,1,6.416,6.416v1.9a.713.713,0,0,1-1.426,0v-1.9A5,5,0,0,0,188.872,199.521Z" transform="translate(-176.277 -190.649)" fill="#ff7f00"/>
      </g>
    </g>
  </g>
</svg>
