<svg xmlns="http://www.w3.org/2000/svg" width="77.384" height="69.378" viewBox="0 0 77.384 69.378">
  <g id="Solid" transform="translate(-23.998 -48)">
    <path id="Path_5818" data-name="Path 5818" d="M28,101.368a3.991,3.991,0,0,0,2.83-1.172l22.519-22.52,9.177,9.178a4,4,0,0,0,5.661,0L93.375,61.667l0,9.014a4,4,0,1,0,8.005,0l0-18.679a4,4,0,0,0-4-4H78.7a4,4,0,0,0,0,8.005h9.016L65.359,78.363l-9.177-9.178a4,4,0,0,0-5.661,0l-25.35,25.35A4,4,0,0,0,28,101.368Z" transform="translate(0)" fill="#ff7f00"/>
    <path id="Path_5819" data-name="Path 5819" d="M97.381,416H28a4,4,0,1,0,0,8.005H97.381a4,4,0,1,0,0-8.005Z" transform="translate(-0.001 -306.627)" fill="#ff7f00"/>
  </g>
</svg>
