<svg xmlns="http://www.w3.org/2000/svg" width="86.516" height="86.514" viewBox="0 0 86.516 86.514">
  <g id="sort" transform="translate(86.516 0.001) rotate(90)">
    <path id="Path_5825" data-name="Path 5825" d="M246.509,86.516a3.379,3.379,0,0,1-3.38-3.38v-53.4H228.6a6.607,6.607,0,0,1-4.664-11.268L239.328,2.987a10.127,10.127,0,0,1,14.363,0L269.083,18.47a6.607,6.607,0,0,1-4.664,11.268H260.7a3.38,3.38,0,0,1,0-6.759h3.331L248.9,7.752a3.367,3.367,0,0,0-4.776,0L228.984,22.979H243.13a6.767,6.767,0,0,1,6.759,6.759v53.4A3.38,3.38,0,0,1,246.509,86.516Zm0,0" transform="translate(-184.496 0)" fill="#ff7f00"/>
    <path id="Path_5826" data-name="Path 5826" d="M24.5,86.516a10.057,10.057,0,0,1-7.182-2.987L1.925,68.045A6.608,6.608,0,0,1,6.589,56.777H21.119V3.379a3.38,3.38,0,0,1,6.759,0v53.4a6.767,6.767,0,0,1-6.759,6.759H6.974L22.111,78.764a3.367,3.367,0,0,0,4.776,0L42.024,63.537H38.694a3.38,3.38,0,1,1,0-6.759h3.716a6.607,6.607,0,0,1,4.664,11.268L31.68,83.529A10.057,10.057,0,0,1,24.5,86.516Zm0,0" transform="translate(0 0)" fill="#ff7f00"/>
  </g>
</svg>
