<svg id="Layer_1" data-name="Layer 1" xmlns="http://www.w3.org/2000/svg" viewBox="0 0 2000 2000"><defs><style>.cls-1{fill:#ffffff;}</style></defs><title>Nft swaps logo</title><path class="cls-1" d="M578.6,1524.67c282.35,71.09,296.59,46.21,296.59,46.21L1449.64,1172l270.18-187.58a246.21,246.21,0,0,0,62-87.34c53.08-125.72-5.82-270.66-131.54-323.73-57.09-24.11-107-20.47-166.1-4.48a258.74,258.74,0,0,0-79.81,37.38L1170,769,613.14,1155.65l49.06,80.25-318.91,8L495.83,963.71l46.25,75.67,748.5-519.7c146.56-85.86,268.78-134.87,413.51-73.77,196.12,82.79,288,308.89,205.2,505-37.51,88.86-88.55,118.19-184.66,195.81l-.08,0L952.78,1682.63C852.55,1752.21,578.6,1524.67,578.6,1524.67Z"/><path class="cls-1" d="M1421.4,475.33c-282.35-71.09-296.59-46.21-296.59-46.21L550.36,828,280.18,1015.55a246.21,246.21,0,0,0-62,87.34c-53.08,125.72,5.82,270.66,131.54,323.73,57.09,24.11,107,20.47,166.1,4.48a258.74,258.74,0,0,0,79.81-37.38L830,1231l556.83-386.61L1337.8,764.1l318.91-8-152.54,280.18-46.25-75.67-748.5,519.7c-146.56,85.86-268.78,134.87-413.51,73.77-196.12-82.79-288-308.89-205.2-505,37.51-88.86,88.55-118.19,184.66-195.81l.08,0,771.77-535.86C1147.45,247.79,1421.4,475.33,1421.4,475.33Z"/></svg>
