<svg xmlns="http://www.w3.org/2000/svg" width="40.335" height="40.335" viewBox="0 0 40.335 40.335"><defs><style>.a{fill:#ff7f00;}</style></defs><path class="a" d="M160.765,170.057c0-.2,0-.405-.013-.605a9.161,9.161,0,0,0,2.224-2.391,8.539,8.539,0,0,1-2.559.7,4.574,4.574,0,0,0,1.96-2.559,8.557,8.557,0,0,1-2.829,1.091,4.433,4.433,0,0,0-3.252-1.535,4.5,4.5,0,0,0-4.455,4.644,4.951,4.951,0,0,0,.115,1.076,12.547,12.547,0,0,1-9.185-5.075,5,5,0,0,0,1.379,6.366,4.265,4.265,0,0,1-2.019-.618v.06a4.733,4.733,0,0,0,3.575,4.69,4.22,4.22,0,0,1-1.173.16,4.071,4.071,0,0,1-.838-.092,4.529,4.529,0,0,0,4.162,3.317,8.6,8.6,0,0,1-5.533,2.015,8.487,8.487,0,0,1-1.063-.068,12.021,12.021,0,0,0,6.831,2.141C156.284,183.377,160.765,176.245,160.765,170.057Z" transform="translate(-131.949 -153.9)"/><path class="a" d="M40.335,20.167A20.167,20.167,0,1,0,20.167,40.335,20.168,20.168,0,0,0,40.335,20.167Zm-38.5,0A18.334,18.334,0,1,1,20.167,38.5,18.334,18.334,0,0,1,1.833,20.167Z"/></svg>